<svg width="16" height="22" viewBox="0 0 16 22" fill="none" xmlns="http://www.w3.org/2000/svg">
<path d="M4.33334 5.5V3.66667C4.33334 3.18044 4.5265 2.71412 4.87031 2.37031C5.21413 2.02649 5.68045 1.83334 6.16668 1.83334H9.83334C10.3196 1.83334 10.7859 2.02649 11.1297 2.37031C11.4735 2.71412 11.6667 3.18044 11.6667 3.66667V5.5M14.4167 5.5V18.3333C14.4167 18.8196 14.2235 19.2859 13.8797 19.6297C13.5359 19.9735 13.0696 20.1667 12.5833 20.1667H3.41668C2.93045 20.1667 2.46413 19.9735 2.12031 19.6297C1.7765 19.2859 1.58334 18.8196 1.58334 18.3333V5.5H14.4167Z" stroke="#C4C4C4" stroke-width="2" stroke-linecap="round" stroke-linejoin="round"/>
</svg>
